
<svg width="300" height="300" viewBox="0 0 300 300" fill="none" xmlns="http://www.w3.org/2000/svg">
  <rect width="300" height="300" fill="#F3F4F6"/>
  <path d="M150 120C139.507 120 131 128.507 131 139C131 149.493 139.507 158 150 158C160.493 158 169 149.493 169 139C169 128.507 160.493 120 150 120Z" fill="#D1D5DB"/>
  <path d="M190 80H110C93.431 80 80 93.431 80 110V190C80 206.569 93.431 220 110 220H190C206.569 220 220 206.569 220 190V110C220 93.431 206.569 80 190 80ZM202 190C202 196.627 196.627 202 190 202H110C103.373 202 98 196.627 98 190V110C98 103.373 103.373 98 110 98H190C196.627 98 202 103.373 202 110V190Z" fill="#9CA3AF"/>
</svg>
